<svg preserveAspectRatio="none" overflow="visible" style="display: block;" width="13.44" height="13.4401" viewBox="0 0 13.44 13.4401" fill="none" xmlns="http://www.w3.org/2000/svg">
<g id="Group">
<path id="Vector" d="M13.44 13.44V8.5176C13.44 6.0984 12.9192 4.2504 10.0968 4.2504C8.73604 4.2504 7.82884 4.9896 7.45924 5.6952H7.42564V4.4688H4.75444V13.44H7.54324V8.988C7.54324 7.812 7.76164 6.6864 9.20644 6.6864C10.6344 6.6864 10.6512 8.0136 10.6512 9.0552V13.4232H13.44V13.44ZM0.218441 4.4688H3.00724V13.44H0.218441V4.4688ZM1.61284 0C0.722441 0 4.14578e-05 0.7224 4.14578e-05 1.6128C4.14578e-05 2.5032 0.722441 3.2424 1.61284 3.2424C2.50324 3.2424 3.22564 2.5032 3.22564 1.6128C3.22564 0.7224 2.50324 0 1.61284 0Z" fill="#2A6A7D"/>
</g>
</svg>
